<svg viewBox="0 0 1920 1080">

  <polyline points="0,-231070 5,-223519 10,-216150 15,-208958 20,-201942 25,-195098 30,-188424 35,-181918 40,-175574 45,-169394 50,-163374 55,-157507 60,-151796 65,-146234 70,-140822 75,-135556 80,-130433 85,-125451 90,-120608 95,-115899 100,-111324 105,-106881 110,-102565 115,-98376 120,-94310 125,-90365 130,-86541 135,-82831 140,-79238 145,-75756 150,-72383 155,-69119 160,-65959 165,-62903 170,-59950 175,-57092 180,-54334 185,-51671 190,-49099 195,-46617 200,-44225 205,-41919 210,-39698 215,-37559 220,-35502 225,-33524 230,-31620 235,-29793 240,-28038 245,-26357 250,-24743 255,-23197 260,-21717 265,-20303 270,-18948 275,-17656 280,-16422 285,-15246 290,-14126 295,-13059 300,-12046 305,-11084 310,-10170 315,-9305 320,-8486 325,-7711 330,-6981 335,-6292 340,-5643 345,-5034 350,-4462 355,-3927 360,-3427 365,-2961 370,-2528 375,-2125 380,-1753 385,-1408 390,-1092 395,-802 400,-536 405,-296 410,-78 415,118 420,292 425,448 430,586 435,705 440,809 445,896 450,968 455,1026 460,1072 465,1106 470,1129 475,1140 480,1144 485,1137 490,1123 495,1102 500,1074 505,1041 510,1002 515,959 520,913 525,862 530,809 535,754 540,698 545,642 550,584 555,527 560,470 565,414 570,359 575,307 580,256 585,210 590,164 595,121 600,84 605,50 610,18 615,-7 620,-29 625,-45 630,-57 635,-66 640,-67 645,-65 650,-56 655,-43 660,-25 665,-1 670,27 675,62 680,102 685,146 690,196 695,251 700,310 705,375 710,443 715,516 720,593 725,673 730,758 735,844 740,934 745,1028 750,1121 755,1219 760,1316 765,1415 770,1515 775,1614 780,1713 785,1811 790,1907 795,2002 800,2094 805,2182 810,2268 815,2348 820,2422 825,2492 830,2554 835,2609 840,2657 845,2696 850,2725 855,2744 860,2751 865,2747 870,2729 875,2697 880,2651 885,2588 890,2510 895,2413 900,2297 905,2163 910,2006 915,1828 920,1629 925,1403 930,1154 935,876 940,573 945,240 950,-122 955,-517 960,-943 965,-1403 970,-1900 975,-2432 980,-3002 985,-3612 990,-4262 995,-4954 1000,-5690 1005,-6471 1010,-7298 1015,-8172 1020,-9098 1025,-10073 1030,-11102 1035,-12184 1040,-13322 1045,-14519 1050,-15774 1055,-17090 1060,-18469 1065,-19911 1070,-21421 1075,-22996 1080,-24643 1085,-26361 1090,-28152 1095,-30018 1100,-31962 1105,-33984 1110,-36086 1115,-38272 1120,-40542 1125,-42900 1130,-45346 1135,-47883 1140,-50513 1145,-53237 1150,-56058 1155,-58978 1160,-62000 1165,-65125 1170,-68356 1175,-71695 1180,-75144 1185,-78705 1190,-82381 1195,-86173 1200,-90085 1205,-94118 1210,-98275 1215,-102558 1220,-106970 1225,-111512 1230,-116191 1235,-121003 1240,-125953 1245,-131046 1250,-136281 1255,-141663 1260,-147194 1265,-152875 1270,-158711 1275,-164703 1280,-170853 1285,-177166 1290,-183645 1295,-190290 1300,-197105 1305,-204091 1310,-211256 1315,-218598 1320,-226121 1325,-233827 1330,-241721 1335,-249805 1340,-258083 1345,-266556 1350,-275228 1355,-284099 1360,-293178 1365,-302464 1370,-311960 1375,-321672 1380,-331598 1385,-341747 1390,-352119 1395,-362715 1400,-373542 1405,-384603 1410,-395898 1415,-407433 1420,-419211 1425,-431234 1430,-443508 1435,-456032 1440,-468814 1445,-481855 1450,-495158 1455,-508728 1460,-522565 1465,-536678 1470,-551066 1475,-565733 1480,-580687 1485,-595925 1490,-611453 1495,-627279 1500,-643400 1505,-659823 1510,-676552 1515,-693588 1520,-710939 1525,-728605 1530,-746590 1535,-764900 1540,-783538 1545,-802507 1550,-821811 1555,-841454 1560,-861441 1565,-881775 1570,-902459 1575,-923497 1580,-944894 1585,-966655 1590,-988782 1595,-1011280 1600,-1034153 1605,-1057404 1610,-1081039 1615,-1105061 1620,-1129472 1625,-1154282 1630,-1179490 1635,-1205101 1640,-1231121 1645,-1257554 1650,-1284402 1655,-1311673 1660,-1339367 1665,-1367491 1670,-1396050 1675,-1425045 1680,-1454484 1685,-1484370 1690,-1514708 1695,-1545502 1700,-1576754 1705,-1608474 1710,-1640663 1715,-1673325 1720,-1706466 1725,-1740091 1730,-1774203 1735,-1808809 1740,-1843909 1745,-1879514 1750,-1915625 1755,-1952246 1760,-1989383 1765,-2027041 1770,-2065226 1775,-2103941 1780,-2143189 1785,-2182981 1790,-2223315 1795,-2264200 1800,-2305639 1805,-2347638 1810,-2390201 1815,-2433336 1820,-2477044 1825,-2521332 1830,-2566206 1835,-2611668 1840,-2657726 1845,-2704383 1850,-2751647 1855,-2799521 1860,-2848009 1865,-2897120 1870,-2946856 1875,-2997222 1880,-3048226 1885,-3099871 1890,-3152163 1895,-3205110 1900,-3258711 1905,-3312978 1910,-3367914"
            fill="none" stroke="black" />
</svg>