<svg viewBox="0 0 1920 1080">

  <polyline points="0,-1524 5,-1433 10,-1346 15,-1261 20,-1179 25,-1100 30,-1023 35,-949 40,-878 45,-810 50,-743 55,-680 60,-619 65,-560 70,-504 75,-450 80,-398 85,-348 90,-301 95,-254 100,-212 105,-170 110,-130 115,-93 120,-56 125,-21 130,10 135,40 140,70 145,98 150,124 155,149 160,171 165,193 170,215 175,233 180,251 185,268 190,284 195,297 200,311 205,323 210,334 215,344 220,353 225,361 230,368 235,375 240,381 245,386 250,391 255,393 260,396 265,399 270,400 275,401 280,401 285,402 290,400 295,399 300,397 305,395 310,394 315,390 320,386 325,384 330,380 335,375 340,372 345,367 350,362 355,358 360,353 365,347 370,343 375,337 380,332 385,327 390,321 395,315 400,310 405,304 410,299 415,295 420,289 425,283 430,278 435,274 440,269 445,264 450,260 455,255 460,251 465,247 470,243 475,239 480,236 485,233 490,229 495,227 500,225 505,221 510,220 515,219 520,217 525,217 530,215 535,214 540,213 545,213 550,212 555,214 560,214 565,215 570,216 575,217 580,218 585,221 590,223 595,225 600,227 605,230 610,233 615,237 620,240 625,244 630,249 635,252 640,256 645,260 650,265 655,270 660,274 665,280 670,285 675,289 680,295 685,301 690,306 695,312 700,318 705,323 710,330 715,334 720,339 725,346 730,351 735,356 740,361 745,366 750,370 755,376 760,381 765,384 770,388 775,392 780,395 785,399 790,401 795,403 800,406 805,407 810,407 815,408 820,408 825,408 830,406 835,405 840,402 845,399 850,396 855,390 860,385 865,380 870,372 875,364 880,356 885,346 890,336 895,324 900,312 905,297 910,284 915,266 920,249 925,230 930,210 935,190 940,167 945,143 950,117 955,90 960,62 965,31 970,0 975,-33 980,-69 985,-106 990,-145 995,-186 1000,-227 1005,-273 1010,-320 1015,-368 1020,-420 1025,-474 1030,-528 1035,-586 1040,-646 1045,-709 1050,-774 1055,-841 1060,-912 1065,-985 1070,-1060 1075,-1138 1080,-1219 1085,-1303 1090,-1389 1095,-1479 1100,-1571 1105,-1667 1110,-1765 1115,-1868 1120,-1974 1125,-2081 1130,-2194 1135,-2310 1140,-2428 1145,-2551 1150,-2678 1155,-2809 1160,-2943 1165,-3081 1170,-3221 1175,-3368 1180,-3518 1185,-3672 1190,-3829 1195,-3993 1200,-4159 1205,-4331 1210,-4507 1215,-4686 1220,-4872 1225,-5062 1230,-5256 1235,-5456 1240,-5660 1245,-5868 1250,-6084 1255,-6303 1260,-6527 1265,-6759 1270,-6994 1275,-7235 1280,-7482 1285,-7735 1290,-7992 1295,-8256 1300,-8526 1305,-8802 1310,-9083 1315,-9372 1320,-9665 1325,-9965 1330,-10273 1335,-10586 1340,-10904 1345,-11232 1350,-11565 1355,-11905 1360,-12253 1365,-12606 1370,-12967 1375,-13336 1380,-13712 1385,-14095 1390,-14484 1395,-14882 1400,-15288 1405,-15702 1410,-16123 1415,-16552 1420,-16989 1425,-17435 1430,-17888 1435,-18351 1440,-18821 1445,-19300 1450,-19787 1455,-20284 1460,-20788 1465,-21302 1470,-21825 1475,-22356 1480,-22898 1485,-23449 1490,-24008 1495,-24577 1500,-25157 1505,-25746 1510,-26345 1515,-26953 1520,-27572 1525,-28201 1530,-28840 1535,-29490 1540,-30149 1545,-30820 1550,-31501 1555,-32194 1560,-32897 1565,-33611 1570,-34336 1575,-35073 1580,-35821 1585,-36580 1590,-37351 1595,-38134 1600,-38928 1605,-39734 1610,-40553 1615,-41382 1620,-42227 1625,-43082 1630,-43949 1635,-44830 1640,-45724 1645,-46629 1650,-47550 1655,-48481 1660,-49427 1665,-50386 1670,-51359 1675,-52345 1680,-53345 1685,-54360 1690,-55388 1695,-56429 1700,-57485 1705,-58556 1710,-59640 1715,-60741 1720,-61855 1725,-62985 1730,-64128 1735,-65289 1740,-66463 1745,-67654 1750,-68860 1755,-70082 1760,-71319 1765,-72572 1770,-73840 1775,-75126 1780,-76428 1785,-77747 1790,-79082 1795,-80435 1800,-81802 1805,-83189 1810,-84592 1815,-86011 1820,-87449 1825,-88905 1830,-90377 1835,-91869 1840,-93379 1845,-94904 1850,-96450 1855,-98015 1860,-99597 1865,-101197 1870,-102818 1875,-104456 1880,-106115 1885,-107794 1890,-109490 1895,-111206 1900,-112943 1905,-114699 1910,-116475"
            fill="none" stroke="black" />
</svg>